# xmcd CD database file
#
# Track frame offsets:
#	150
#	22311
#	38605
#	59046
#	77723
#	90613
#	108315
#	124863
#	145886
#	163238
#
# Disc length: 2450 seconds
#
# Revision: 0
# Processed by: cddbd v1.5.2PL0 Copyright (c) Steve Scherf et al.
# Submitted via: CDex 1.51
#
DISCID=8a09900a
DTITLE=BlackHawk - Down From The Mountain
DYEAR=2011
DGENRE=Country
TTITLE0=Down From The Mountain
TTITLE1=Starting With You
TTITLE2=Cold As A Hollywood Kiss
TTITLE3=Voices
TTITLE4=That's What I'm Talking About
TTITLE5=Brighter
TTITLE6=Wichita
TTITLE7=Forgiveness
TTITLE8=I'm Better At Hello
TTITLE9=Champagne High
EXTD=YEAR: 2011
EXTT0=
EXTT1=
EXTT2=
EXTT3=
EXTT4=
EXTT5=
EXTT6=
EXTT7=
EXTT8=
EXTT9=
PLAYORDER=
